<svg width="300" height="367" viewBox="0 0 300 367" fill="none" xmlns="http://www.w3.org/2000/svg">
<rect y="62" width="300" height="300" fill="#EBEBEB"/>
<path d="M82.6406 230.047C82.6406 256.766 89.1094 275.094 102.047 285.031C115.078 294.875 131.625 299.797 151.688 299.797C175.781 299.797 193.5 293.516 204.844 280.953C216.188 268.391 221.953 249.266 222.141 223.578L222.844 137.094L246.188 131.75L247.734 121.062H180.516L179.109 131.75L204.844 137.656L204.422 228.219C204.328 246.125 200.344 259.438 192.469 268.156C184.594 276.875 173.344 281.234 158.719 281.234C143.625 281.234 131.672 276.594 122.859 267.312C114.141 257.938 109.781 243.594 109.781 224.281V137.094L133.547 131.75L134.812 121.062H58.5938L56.7656 131.75L82.6406 137.656V230.047Z" fill="#357BAE"/>
<rect x="21" y="312" width="257" height="39" rx="10" fill="#C4C4C4"/>
<path d="M44.2104 323.746C44.2104 324.708 44.3927 325.441 44.7573 325.947C45.1264 326.453 45.5753 326.786 46.104 326.945C46.6372 327.105 47.2342 327.185 47.895 327.185C49.1255 327.185 50.046 326.868 50.6567 326.234C51.2674 325.596 51.5796 324.621 51.5932 323.309L51.6206 319.631L52.7553 319.269L52.8511 318.496H49.2143L49.1186 319.269L50.3423 319.665L50.3354 323.514C50.3354 324.302 50.16 324.888 49.8091 325.271C49.4581 325.653 48.9682 325.845 48.3393 325.845C47.6557 325.845 47.118 325.646 46.7261 325.25C46.3341 324.849 46.1382 324.234 46.1382 323.404V319.631L47.2866 319.269L47.3891 318.496H43.0757L42.9321 319.269L44.2104 319.665V323.746ZM60.6082 326.166L59.6785 325.824V322.803C59.9884 322.493 60.3575 322.338 60.7859 322.338C61.073 322.338 61.2986 322.438 61.4627 322.639C61.6268 322.835 61.7088 323.142 61.7088 323.562V325.824L61.2371 326.214L61.2029 327H64.2312L64.3406 326.166L63.3426 325.824V322.707C63.3426 322.06 63.1967 321.572 62.9051 321.244C62.6134 320.916 62.2033 320.752 61.6746 320.752C61.2964 320.752 60.9432 320.848 60.615 321.039C60.2869 321.23 59.9702 321.495 59.6648 321.832L59.576 321.812L59.7127 321.025L59.5281 320.827L57.1287 321.06L56.9988 321.894L58.0105 322.352V325.824L57.0125 326.214L56.9168 327H60.4578L60.6082 326.166ZM70.3068 320C70.5665 320 70.7875 319.957 70.9698 319.87C71.1567 319.784 71.298 319.667 71.3937 319.521C71.4894 319.376 71.5372 319.216 71.5372 319.043C71.5372 318.874 71.4871 318.722 71.3868 318.585C71.2866 318.444 71.143 318.332 70.9562 318.25C70.7693 318.168 70.5528 318.127 70.3068 318.127C70.0652 318.127 69.8533 318.168 69.671 318.25C69.4933 318.327 69.3543 318.435 69.254 318.571C69.1583 318.708 69.1105 318.861 69.1105 319.029C69.1105 319.307 69.2107 319.54 69.4112 319.727C69.6163 319.909 69.9148 320 70.3068 320ZM72.2482 327L72.3234 326.132L71.2228 325.817V321.08L70.9493 320.807L68.7071 320.971L68.5568 321.825L69.5753 322.386V325.817L68.5294 326.125L68.4611 327H72.2482ZM77.1821 322.003L79.0551 327.205L80.4428 327.055L82.268 321.982L82.9243 321.654L83.0541 320.861H80.436L80.2993 321.654L81.1332 322.003L80.0258 325.202L78.9936 321.982L79.8071 321.654L79.9028 320.861H76.4916L76.3823 321.654L77.1821 322.003ZM89.7449 327.212C90.1869 327.212 90.6244 327.137 91.0574 326.986C91.4903 326.836 91.8458 326.617 92.1238 326.33L91.9871 325.558C91.7182 325.699 91.4561 325.792 91.2009 325.838C90.9503 325.879 90.6723 325.899 90.367 325.899C89.852 325.899 89.4623 325.742 89.198 325.428C88.9337 325.113 88.7878 324.712 88.7605 324.225L91.8435 324.156C91.8709 324.033 91.8982 323.842 91.9255 323.582C91.9574 323.322 91.9734 323.138 91.9734 323.028C91.9734 322.554 91.8914 322.14 91.7273 321.784C91.5678 321.429 91.3399 321.155 91.0437 320.964C90.7475 320.772 90.4034 320.677 90.0115 320.677C89.5193 320.677 89.0431 320.82 88.5828 321.107C88.127 321.39 87.7533 321.789 87.4617 322.304C87.1746 322.819 87.031 323.407 87.031 324.067C87.031 324.737 87.1518 325.309 87.3933 325.783C87.6349 326.257 87.9607 326.615 88.3709 326.856C88.781 327.093 89.239 327.212 89.7449 327.212ZM89.6287 321.818C89.8884 321.818 90.0798 321.916 90.2029 322.112C90.3259 322.304 90.3875 322.563 90.3875 322.892C90.3875 322.955 90.3829 323.037 90.3738 323.138C90.3692 323.238 90.3601 323.309 90.3464 323.35L88.74 323.507C88.7491 323.16 88.7947 322.86 88.8767 322.604C88.9587 322.349 89.0658 322.156 89.198 322.023C89.3302 321.887 89.4737 321.818 89.6287 321.818ZM100.489 326.057L98.8761 325.729V323.705C98.9535 323.359 99.0834 323.076 99.2657 322.857C99.4526 322.639 99.6713 322.529 99.922 322.529C100.182 322.529 100.469 322.63 100.783 322.83C100.979 322.666 101.132 322.491 101.241 322.304C101.351 322.112 101.405 321.896 101.405 321.654C101.405 321.39 101.316 321.169 101.139 320.991C100.966 320.813 100.731 320.725 100.435 320.725C100.093 320.725 99.7738 320.859 99.4776 321.128C99.1859 321.392 98.9558 321.796 98.7872 322.338L98.6573 322.304L98.7872 321.039L98.5753 320.82L96.3468 321.046L96.21 321.88L97.2491 322.311V325.824L96.2237 326.193L96.1143 326.993H100.407L100.489 326.057ZM107.317 327.239C107.777 327.239 108.199 327.16 108.581 327C108.969 326.845 109.276 326.622 109.504 326.33C109.732 326.038 109.846 325.701 109.846 325.318C109.846 324.967 109.755 324.664 109.573 324.409C109.39 324.149 109.172 323.935 108.916 323.767C108.661 323.593 108.331 323.402 107.925 323.192C107.647 323.051 107.428 322.933 107.269 322.837C107.109 322.737 106.977 322.627 106.872 322.509C106.768 322.39 106.715 322.26 106.715 322.119C106.715 321.937 106.774 321.784 106.893 321.661C107.016 321.538 107.18 321.477 107.385 321.477C107.608 321.477 107.814 321.549 108 321.695C108.187 321.841 108.326 322.096 108.417 322.461L108.554 322.898C108.878 322.871 109.147 322.762 109.361 322.57C109.575 322.374 109.682 322.133 109.682 321.846C109.682 321.472 109.5 321.185 109.135 320.984C108.775 320.784 108.301 320.684 107.713 320.684C107.176 320.684 106.727 320.791 106.367 321.005C106.011 321.219 105.749 321.483 105.58 321.798C105.416 322.108 105.334 322.409 105.334 322.7C105.334 323.056 105.426 323.366 105.608 323.63C105.795 323.89 106.013 324.106 106.264 324.279C106.515 324.448 106.841 324.637 107.242 324.847C107.501 324.979 107.702 325.088 107.843 325.175C107.989 325.261 108.107 325.357 108.199 325.462C108.294 325.567 108.342 325.678 108.342 325.797C108.342 325.997 108.272 326.141 108.13 326.228C107.989 326.314 107.784 326.357 107.515 326.357C107.246 326.357 107 326.239 106.777 326.002C106.553 325.76 106.376 325.41 106.244 324.949C105.897 324.977 105.626 325.079 105.43 325.257C105.234 325.435 105.136 325.665 105.136 325.947C105.136 326.189 105.234 326.408 105.43 326.604C105.631 326.799 105.897 326.954 106.23 327.068C106.567 327.182 106.929 327.239 107.317 327.239ZM115.744 320C116.004 320 116.225 319.957 116.407 319.87C116.594 319.784 116.735 319.667 116.831 319.521C116.926 319.376 116.974 319.216 116.974 319.043C116.974 318.874 116.924 318.722 116.824 318.585C116.724 318.444 116.58 318.332 116.393 318.25C116.206 318.168 115.99 318.127 115.744 318.127C115.502 318.127 115.29 318.168 115.108 318.25C114.93 318.327 114.791 318.435 114.691 318.571C114.595 318.708 114.548 318.861 114.548 319.029C114.548 319.307 114.648 319.54 114.848 319.727C115.053 319.909 115.352 320 115.744 320ZM117.685 327L117.76 326.132L116.66 325.817V321.08L116.386 320.807L114.144 320.971L113.994 321.825L115.012 322.386V325.817L113.967 326.125L113.898 327H117.685ZM124.089 327.137C124.517 327.137 124.873 327.046 125.155 326.863C125.442 326.681 125.698 326.435 125.921 326.125L125.996 326.139L126.017 326.207C126.076 326.503 126.203 326.736 126.399 326.904C126.6 327.073 126.871 327.157 127.213 327.157C127.464 327.157 127.678 327.137 127.856 327.096C128.038 327.055 128.259 326.986 128.519 326.891L128.642 326.029L128.396 325.961C128.163 325.893 127.99 325.831 127.876 325.776C127.767 325.717 127.685 325.628 127.63 325.51C127.575 325.391 127.548 325.216 127.548 324.983V318.373L127.274 318.1L124.991 318.277L124.855 319.091L125.969 319.624V320.369L126.044 321.053H126.003C125.903 320.984 125.755 320.927 125.559 320.882C125.367 320.832 125.189 320.807 125.025 320.807C124.424 320.807 123.882 320.973 123.398 321.306C122.92 321.634 122.544 322.074 122.271 322.625C122.002 323.172 121.867 323.757 121.867 324.382C121.867 324.924 121.958 325.405 122.141 325.824C122.323 326.239 122.583 326.562 122.92 326.795C123.257 327.023 123.647 327.137 124.089 327.137ZM124.759 321.866C124.946 321.866 125.146 321.932 125.36 322.064C125.579 322.197 125.775 322.388 125.948 322.639V325.332C125.798 325.46 125.625 325.567 125.429 325.653C125.233 325.735 125.041 325.776 124.855 325.776C124.604 325.776 124.385 325.697 124.198 325.537C124.016 325.373 123.875 325.145 123.774 324.854C123.674 324.562 123.624 324.22 123.624 323.828C123.624 323.277 123.72 322.812 123.911 322.434C124.103 322.055 124.385 321.866 124.759 321.866ZM134.163 327.164C134.455 327.164 134.726 327.109 134.977 327C135.232 326.895 135.446 326.763 135.619 326.604C135.797 326.444 135.92 326.285 135.989 326.125L136.071 326.146L136.091 326.241C136.155 326.524 136.264 326.745 136.419 326.904C136.579 327.064 136.834 327.144 137.185 327.144C137.44 327.144 137.645 327.123 137.8 327.082C137.96 327.041 138.117 326.973 138.272 326.877L138.402 326.002L138.135 325.954C137.916 325.913 137.761 325.858 137.67 325.79C137.584 325.717 137.531 325.624 137.513 325.51C137.495 325.396 137.486 325.204 137.486 324.936V322.782C137.486 322.053 137.333 321.522 137.028 321.189C136.722 320.852 136.283 320.684 135.708 320.684C135.321 320.684 134.909 320.766 134.471 320.93C134.034 321.089 133.667 321.294 133.37 321.545C133.079 321.796 132.933 322.044 132.933 322.29C132.933 322.614 133.049 322.828 133.282 322.933C133.514 323.037 133.817 323.09 134.191 323.09C134.223 322.689 134.257 322.39 134.293 322.194C134.33 321.998 134.389 321.855 134.471 321.764C134.558 321.668 134.683 321.62 134.847 321.62C135.18 321.62 135.435 321.759 135.613 322.037C135.79 322.315 135.879 322.661 135.879 323.076V323.589C135.196 323.612 134.619 323.726 134.15 323.931C133.68 324.136 133.327 324.4 133.09 324.724C132.858 325.047 132.742 325.4 132.742 325.783C132.742 326.225 132.871 326.567 133.131 326.809C133.396 327.046 133.74 327.164 134.163 327.164ZM135.879 325.558C135.761 325.667 135.622 325.763 135.462 325.845C135.307 325.922 135.155 325.961 135.004 325.961C134.804 325.961 134.644 325.895 134.526 325.763C134.412 325.631 134.355 325.48 134.355 325.312C134.355 325.047 134.471 324.815 134.703 324.614C134.94 324.414 135.332 324.268 135.879 324.177V325.558ZM144.716 327.137C145.145 327.137 145.5 327.046 145.783 326.863C146.07 326.681 146.325 326.435 146.549 326.125L146.624 326.139L146.644 326.207C146.703 326.503 146.831 326.736 147.027 326.904C147.228 327.073 147.499 327.157 147.841 327.157C148.091 327.157 148.305 327.137 148.483 327.096C148.665 327.055 148.886 326.986 149.146 326.891L149.269 326.029L149.023 325.961C148.791 325.893 148.618 325.831 148.504 325.776C148.394 325.717 148.312 325.628 148.258 325.51C148.203 325.391 148.175 325.216 148.175 324.983V318.373L147.902 318.1L145.619 318.277L145.482 319.091L146.596 319.624V320.369L146.672 321.053H146.631C146.53 320.984 146.382 320.927 146.186 320.882C145.995 320.832 145.817 320.807 145.653 320.807C145.051 320.807 144.509 320.973 144.026 321.306C143.548 321.634 143.172 322.074 142.898 322.625C142.629 323.172 142.495 323.757 142.495 324.382C142.495 324.924 142.586 325.405 142.768 325.824C142.951 326.239 143.21 326.562 143.548 326.795C143.885 327.023 144.274 327.137 144.716 327.137ZM145.386 321.866C145.573 321.866 145.774 321.932 145.988 322.064C146.207 322.197 146.403 322.388 146.576 322.639V325.332C146.425 325.46 146.252 325.567 146.056 325.653C145.86 325.735 145.669 325.776 145.482 325.776C145.231 325.776 145.013 325.697 144.826 325.537C144.644 325.373 144.502 325.145 144.402 324.854C144.302 324.562 144.252 324.22 144.252 323.828C144.252 323.277 144.347 322.812 144.539 322.434C144.73 322.055 145.013 321.866 145.386 321.866ZM156.015 327.212C156.457 327.212 156.894 327.137 157.327 326.986C157.76 326.836 158.116 326.617 158.394 326.33L158.257 325.558C157.988 325.699 157.726 325.792 157.471 325.838C157.22 325.879 156.942 325.899 156.637 325.899C156.122 325.899 155.732 325.742 155.468 325.428C155.203 325.113 155.058 324.712 155.03 324.225L158.113 324.156C158.141 324.033 158.168 323.842 158.195 323.582C158.227 323.322 158.243 323.138 158.243 323.028C158.243 322.554 158.161 322.14 157.997 321.784C157.838 321.429 157.61 321.155 157.313 320.964C157.017 320.772 156.673 320.677 156.281 320.677C155.789 320.677 155.313 320.82 154.853 321.107C154.397 321.39 154.023 321.789 153.731 322.304C153.444 322.819 153.301 323.407 153.301 324.067C153.301 324.737 153.422 325.309 153.663 325.783C153.905 326.257 154.23 326.615 154.641 326.856C155.051 327.093 155.509 327.212 156.015 327.212ZM155.898 321.818C156.158 321.818 156.35 321.916 156.473 322.112C156.596 322.304 156.657 322.563 156.657 322.892C156.657 322.955 156.653 323.037 156.644 323.138C156.639 323.238 156.63 323.309 156.616 323.35L155.01 323.507C155.019 323.16 155.064 322.86 155.146 322.604C155.229 322.349 155.336 322.156 155.468 322.023C155.6 321.887 155.743 321.818 155.898 321.818ZM172.93 327L173.019 326.221L171.741 325.756L172.247 324.32H175.015L175.521 325.742L174.366 326.282L174.27 327.007H178.508L178.584 326.234L177.606 325.763L174.94 318.325L173.245 318.653L170.415 325.735L169.362 326.275L169.266 327H172.93ZM173.675 320.273L174.673 323.254H172.616L173.675 320.273ZM183.675 326.658C183.953 326.822 184.306 326.945 184.734 327.027C185.163 327.114 185.552 327.157 185.903 327.157C186.537 327.157 187.127 327.018 187.674 326.74C188.225 326.458 188.665 326.054 188.993 325.53C189.326 325.002 189.492 324.389 189.492 323.691C189.492 323.117 189.396 322.609 189.205 322.167C189.018 321.72 188.749 321.374 188.398 321.128C188.052 320.877 187.646 320.752 187.182 320.752C186.826 320.752 186.5 320.843 186.204 321.025C185.908 321.208 185.607 321.472 185.302 321.818L185.22 321.805L185.315 321.094V318.394L185.042 318.127L182.807 318.291L182.663 319.111L183.675 319.638V326.658ZM185.315 322.728C185.707 322.358 186.12 322.174 186.553 322.174C186.949 322.174 187.236 322.365 187.414 322.748C187.596 323.131 187.687 323.573 187.687 324.074C187.687 324.48 187.633 324.831 187.523 325.127C187.414 325.419 187.266 325.64 187.079 325.79C186.897 325.94 186.692 326.016 186.464 326.016C186.245 326.016 186.033 325.979 185.828 325.906C185.628 325.829 185.457 325.722 185.315 325.585V322.728ZM196.231 327.212C196.673 327.212 197.11 327.137 197.543 326.986C197.976 326.836 198.332 326.617 198.61 326.33L198.473 325.558C198.204 325.699 197.942 325.792 197.687 325.838C197.436 325.879 197.158 325.899 196.853 325.899C196.338 325.899 195.948 325.742 195.684 325.428C195.42 325.113 195.274 324.712 195.246 324.225L198.329 324.156C198.357 324.033 198.384 323.842 198.411 323.582C198.443 323.322 198.459 323.138 198.459 323.028C198.459 322.554 198.377 322.14 198.213 321.784C198.054 321.429 197.826 321.155 197.53 320.964C197.233 320.772 196.889 320.677 196.497 320.677C196.005 320.677 195.529 320.82 195.069 321.107C194.613 321.39 194.239 321.789 193.948 322.304C193.66 322.819 193.517 323.407 193.517 324.067C193.517 324.737 193.638 325.309 193.879 325.783C194.121 326.257 194.447 326.615 194.857 326.856C195.267 327.093 195.725 327.212 196.231 327.212ZM196.115 321.818C196.374 321.818 196.566 321.916 196.689 322.112C196.812 322.304 196.873 322.563 196.873 322.892C196.873 322.955 196.869 323.037 196.86 323.138C196.855 323.238 196.846 323.309 196.832 323.35L195.226 323.507C195.235 323.16 195.281 322.86 195.363 322.604C195.445 322.349 195.552 322.156 195.684 322.023C195.816 321.887 195.96 321.818 196.115 321.818ZM206.975 326.057L205.362 325.729V323.705C205.439 323.359 205.569 323.076 205.752 322.857C205.938 322.639 206.157 322.529 206.408 322.529C206.668 322.529 206.955 322.63 207.269 322.83C207.465 322.666 207.618 322.491 207.727 322.304C207.837 322.112 207.891 321.896 207.891 321.654C207.891 321.39 207.802 321.169 207.625 320.991C207.451 320.813 207.217 320.725 206.921 320.725C206.579 320.725 206.26 320.859 205.963 321.128C205.672 321.392 205.442 321.796 205.273 322.338L205.143 322.304L205.273 321.039L205.061 320.82L202.833 321.046L202.696 321.88L203.735 322.311V325.824L202.71 326.193L202.6 326.993H206.893L206.975 326.057ZM212.299 325.1C212.294 325.615 212.351 326.022 212.47 326.323C212.593 326.624 212.78 326.838 213.03 326.966C213.281 327.093 213.611 327.157 214.021 327.157C214.473 327.157 214.871 327.062 215.218 326.87C215.569 326.679 215.847 326.439 216.052 326.152L215.881 325.517C215.858 325.53 215.803 325.56 215.717 325.605C215.635 325.651 215.528 325.697 215.395 325.742C215.268 325.783 215.138 325.804 215.006 325.804C214.637 325.804 214.375 325.719 214.22 325.551C214.069 325.382 213.994 325.1 213.994 324.703L214.008 322.078H215.86L215.929 321.107H214.028V319.604H213.29C213.048 319.95 212.775 320.278 212.47 320.588C212.169 320.893 211.861 321.153 211.547 321.367V322.058H212.319L212.299 325.1ZM221.553 327.164C221.845 327.164 222.116 327.109 222.366 327C222.622 326.895 222.836 326.763 223.009 326.604C223.187 326.444 223.31 326.285 223.378 326.125L223.46 326.146L223.481 326.241C223.545 326.524 223.654 326.745 223.809 326.904C223.968 327.064 224.224 327.144 224.574 327.144C224.83 327.144 225.035 327.123 225.19 327.082C225.349 327.041 225.506 326.973 225.661 326.877L225.791 326.002L225.525 325.954C225.306 325.913 225.151 325.858 225.06 325.79C224.973 325.717 224.921 325.624 224.903 325.51C224.884 325.396 224.875 325.204 224.875 324.936V322.782C224.875 322.053 224.723 321.522 224.417 321.189C224.112 320.852 223.672 320.684 223.098 320.684C222.711 320.684 222.298 320.766 221.861 320.93C221.423 321.089 221.056 321.294 220.76 321.545C220.468 321.796 220.323 322.044 220.323 322.29C220.323 322.614 220.439 322.828 220.671 322.933C220.904 323.037 221.207 323.09 221.58 323.09C221.612 322.689 221.646 322.39 221.683 322.194C221.719 321.998 221.779 321.855 221.861 321.764C221.947 321.668 222.073 321.62 222.237 321.62C222.569 321.62 222.824 321.759 223.002 322.037C223.18 322.315 223.269 322.661 223.269 323.076V323.589C222.585 323.612 222.009 323.726 221.539 323.931C221.07 324.136 220.717 324.4 220.48 324.724C220.247 325.047 220.131 325.4 220.131 325.783C220.131 326.225 220.261 326.567 220.521 326.809C220.785 327.046 221.129 327.164 221.553 327.164ZM223.269 325.558C223.15 325.667 223.011 325.763 222.852 325.845C222.697 325.922 222.544 325.961 222.394 325.961C222.193 325.961 222.034 325.895 221.915 325.763C221.801 325.631 221.744 325.48 221.744 325.312C221.744 325.047 221.861 324.815 222.093 324.614C222.33 324.414 222.722 324.268 223.269 324.177V325.558ZM239.009 327.137C239.437 327.137 239.793 327.046 240.075 326.863C240.362 326.681 240.617 326.435 240.841 326.125L240.916 326.139L240.936 326.207C240.996 326.503 241.123 326.736 241.319 326.904C241.52 327.073 241.791 327.157 242.133 327.157C242.383 327.157 242.598 327.137 242.775 327.096C242.958 327.055 243.179 326.986 243.438 326.891L243.561 326.029L243.315 325.961C243.083 325.893 242.91 325.831 242.796 325.776C242.686 325.717 242.604 325.628 242.55 325.51C242.495 325.391 242.468 325.216 242.468 324.983V318.373L242.194 318.1L239.911 318.277L239.774 319.091L240.889 319.624V320.369L240.964 321.053H240.923C240.822 320.984 240.674 320.927 240.478 320.882C240.287 320.832 240.109 320.807 239.945 320.807C239.344 320.807 238.801 320.973 238.318 321.306C237.84 321.634 237.464 322.074 237.19 322.625C236.921 323.172 236.787 323.757 236.787 324.382C236.787 324.924 236.878 325.405 237.06 325.824C237.243 326.239 237.502 326.562 237.84 326.795C238.177 327.023 238.567 327.137 239.009 327.137ZM239.679 321.866C239.865 321.866 240.066 321.932 240.28 322.064C240.499 322.197 240.695 322.388 240.868 322.639V325.332C240.718 325.46 240.544 325.567 240.349 325.653C240.153 325.735 239.961 325.776 239.774 325.776C239.524 325.776 239.305 325.697 239.118 325.537C238.936 325.373 238.794 325.145 238.694 324.854C238.594 324.562 238.544 324.22 238.544 323.828C238.544 323.277 238.64 322.812 238.831 322.434C239.022 322.055 239.305 321.866 239.679 321.866ZM250.307 327.212C250.749 327.212 251.186 327.137 251.619 326.986C252.052 326.836 252.408 326.617 252.686 326.33L252.549 325.558C252.28 325.699 252.018 325.792 251.763 325.838C251.512 325.879 251.234 325.899 250.929 325.899C250.414 325.899 250.024 325.742 249.76 325.428C249.496 325.113 249.35 324.712 249.322 324.225L252.405 324.156C252.433 324.033 252.46 323.842 252.487 323.582C252.519 323.322 252.535 323.138 252.535 323.028C252.535 322.554 252.453 322.14 252.289 321.784C252.13 321.429 251.902 321.155 251.606 320.964C251.309 320.772 250.965 320.677 250.573 320.677C250.081 320.677 249.605 320.82 249.145 321.107C248.689 321.39 248.315 321.789 248.024 322.304C247.737 322.819 247.593 323.407 247.593 324.067C247.593 324.737 247.714 325.309 247.955 325.783C248.197 326.257 248.523 326.615 248.933 326.856C249.343 327.093 249.801 327.212 250.307 327.212ZM250.191 321.818C250.45 321.818 250.642 321.916 250.765 322.112C250.888 322.304 250.949 322.563 250.949 322.892C250.949 322.955 250.945 323.037 250.936 323.138C250.931 323.238 250.922 323.309 250.908 323.35L249.302 323.507C249.311 323.16 249.357 322.86 249.439 322.604C249.521 322.349 249.628 322.156 249.76 322.023C249.892 321.887 250.036 321.818 250.191 321.818ZM102.763 345.178C103.26 345.178 103.734 345.109 104.185 344.973C104.641 344.836 105.04 344.663 105.381 344.453C105.723 344.239 105.99 344.02 106.181 343.797L105.853 343.079C105.516 343.325 105.144 343.528 104.739 343.688C104.338 343.842 103.916 343.92 103.474 343.92C102.868 343.92 102.335 343.781 101.875 343.503C101.414 343.225 101.054 342.817 100.794 342.279C100.539 341.742 100.412 341.094 100.412 340.338C100.412 339.686 100.51 339.13 100.706 338.67C100.906 338.205 101.189 337.854 101.553 337.617C101.918 337.38 102.344 337.262 102.832 337.262C103.169 337.262 103.483 337.321 103.775 337.439C104.071 337.558 104.299 337.717 104.459 337.918L104.814 339.463L105.703 339.586L105.908 337.002C105.63 336.788 105.238 336.621 104.732 336.503C104.226 336.38 103.729 336.318 103.242 336.318C102.107 336.318 101.17 336.555 100.432 337.029C99.6985 337.503 99.1653 338.098 98.8326 338.813C98.4999 339.529 98.3336 340.256 98.3336 340.994C98.3336 341.869 98.5181 342.621 98.8873 343.25C99.2564 343.879 99.7737 344.357 100.439 344.686C101.104 345.014 101.879 345.178 102.763 345.178ZM113.227 345.185C113.82 345.185 114.351 345.046 114.82 344.768C115.29 344.485 115.656 344.089 115.921 343.578C116.185 343.068 116.317 342.48 116.317 341.814C116.317 341.149 116.203 340.582 115.975 340.112C115.748 339.638 115.413 339.278 114.971 339.032C114.533 338.786 114.004 338.663 113.385 338.663C112.861 338.663 112.355 338.795 111.867 339.06C111.379 339.324 110.981 339.707 110.671 340.208C110.361 340.705 110.206 341.286 110.206 341.951C110.206 342.557 110.311 343.104 110.52 343.592C110.73 344.075 111.06 344.462 111.512 344.754C111.967 345.041 112.539 345.185 113.227 345.185ZM113.111 339.736C113.64 339.736 114.011 340.01 114.225 340.557C114.444 341.104 114.554 341.769 114.554 342.553C114.554 343.063 114.462 343.464 114.28 343.756C114.098 344.043 113.822 344.187 113.453 344.187C112.933 344.187 112.553 343.945 112.311 343.462C112.074 342.974 111.956 342.32 111.956 341.5C111.956 340.958 112.047 340.529 112.229 340.215C112.416 339.896 112.71 339.736 113.111 339.736ZM124.074 344.166L123.158 343.824V340.816C123.313 340.661 123.487 340.545 123.678 340.468C123.869 340.386 124.07 340.345 124.279 340.345C124.557 340.345 124.776 340.447 124.936 340.652C125.1 340.853 125.182 341.147 125.182 341.534V343.824L124.738 344.207L124.703 345H127.643L127.759 344.166L126.809 343.824V340.844C126.977 340.684 127.148 340.561 127.321 340.475C127.495 340.388 127.688 340.345 127.903 340.345C128.194 340.345 128.418 340.447 128.572 340.652C128.727 340.857 128.805 341.151 128.805 341.534V343.824L128.374 344.207L128.354 345H131.293L131.416 344.166L130.439 343.824V340.728C130.439 340.08 130.297 339.597 130.015 339.278C129.737 338.955 129.329 338.793 128.791 338.793C128.099 338.793 127.424 339.167 126.768 339.914L126.672 339.9C126.567 339.504 126.38 339.217 126.112 339.039C125.847 338.857 125.528 338.766 125.154 338.766C124.444 338.766 123.774 339.121 123.145 339.832L123.063 339.818L123.199 339.039L123.008 338.834L120.588 339.073L120.465 339.9L121.497 340.352V343.824L120.499 344.207L120.41 345H123.938L124.074 344.166ZM138.223 344.645V346.367L139.59 346.716L139.474 347.536H135.461L135.543 346.729L136.596 346.36V340.324L135.557 339.894L135.687 339.053L138.1 338.834L138.305 339.025L138.182 339.75L138.251 339.771C138.456 339.479 138.715 339.23 139.03 339.025C139.349 338.816 139.713 338.711 140.124 338.711C140.529 338.711 140.896 338.818 141.224 339.032C141.557 339.242 141.821 339.572 142.017 340.023C142.213 340.475 142.311 341.044 142.311 341.732C142.311 342.434 142.17 343.043 141.887 343.558C141.609 344.068 141.224 344.458 140.732 344.727C140.244 344.995 139.695 345.13 139.085 345.13C138.679 345.13 138.394 345.1 138.23 345.041L138.223 344.645ZM139.467 340.174C139.075 340.174 138.661 340.352 138.223 340.707V343.858C138.392 343.936 138.556 343.993 138.715 344.029C138.875 344.061 139.062 344.077 139.276 344.077C139.682 344.077 139.998 343.92 140.226 343.605C140.459 343.286 140.575 342.844 140.575 342.279C140.575 341.605 140.481 341.085 140.294 340.721C140.112 340.356 139.836 340.174 139.467 340.174ZM147.224 343.175C147.224 343.89 147.357 344.405 147.621 344.72C147.89 345.03 148.316 345.185 148.899 345.185C149.278 345.185 149.633 345.091 149.966 344.904C150.303 344.717 150.581 344.449 150.8 344.098L150.889 344.111V344.193C150.889 344.517 150.993 344.765 151.203 344.938C151.413 345.112 151.7 345.198 152.064 345.198C152.297 345.198 152.52 345.175 152.734 345.13C152.953 345.089 153.183 345.023 153.425 344.932L153.534 344.07L153.288 344.002C153.065 343.938 152.896 343.874 152.782 343.811C152.668 343.742 152.584 343.646 152.529 343.523C152.474 343.396 152.447 343.218 152.447 342.99V339.066L152.194 338.8L149.966 339.039L149.815 340.064L150.759 340.468V343.168C150.604 343.314 150.449 343.423 150.294 343.496C150.139 343.564 149.952 343.599 149.733 343.599C149.464 343.599 149.262 343.501 149.125 343.305C148.993 343.109 148.927 342.778 148.927 342.313V339.094L148.653 338.827L146.493 338.971L146.329 339.873L147.224 340.42V343.175ZM158.044 343.1C158.04 343.615 158.097 344.022 158.215 344.323C158.338 344.624 158.525 344.838 158.776 344.966C159.026 345.093 159.357 345.157 159.767 345.157C160.218 345.157 160.617 345.062 160.963 344.87C161.314 344.679 161.592 344.439 161.797 344.152L161.626 343.517C161.603 343.53 161.549 343.56 161.462 343.605C161.38 343.651 161.273 343.697 161.141 343.742C161.013 343.783 160.883 343.804 160.751 343.804C160.382 343.804 160.12 343.719 159.965 343.551C159.815 343.382 159.739 343.1 159.739 342.703L159.753 340.078H161.606L161.674 339.107H159.774V337.604H159.035C158.794 337.95 158.52 338.278 158.215 338.588C157.914 338.893 157.607 339.153 157.292 339.367V340.058H158.065L158.044 343.1ZM167.298 345.164C167.59 345.164 167.861 345.109 168.112 345C168.367 344.895 168.581 344.763 168.754 344.604C168.932 344.444 169.055 344.285 169.124 344.125L169.206 344.146L169.226 344.241C169.29 344.524 169.399 344.745 169.554 344.904C169.714 345.064 169.969 345.144 170.32 345.144C170.575 345.144 170.78 345.123 170.935 345.082C171.095 345.041 171.252 344.973 171.407 344.877L171.537 344.002L171.27 343.954C171.051 343.913 170.896 343.858 170.805 343.79C170.719 343.717 170.666 343.624 170.648 343.51C170.63 343.396 170.621 343.204 170.621 342.936V340.782C170.621 340.053 170.468 339.522 170.163 339.189C169.857 338.852 169.417 338.684 168.843 338.684C168.456 338.684 168.043 338.766 167.606 338.93C167.168 339.089 166.802 339.294 166.505 339.545C166.214 339.796 166.068 340.044 166.068 340.29C166.068 340.614 166.184 340.828 166.416 340.933C166.649 341.037 166.952 341.09 167.326 341.09C167.358 340.689 167.392 340.39 167.428 340.194C167.465 339.998 167.524 339.855 167.606 339.764C167.693 339.668 167.818 339.62 167.982 339.62C168.315 339.62 168.57 339.759 168.748 340.037C168.925 340.315 169.014 340.661 169.014 341.076V341.589C168.331 341.612 167.754 341.726 167.285 341.931C166.815 342.136 166.462 342.4 166.225 342.724C165.993 343.047 165.876 343.4 165.876 343.783C165.876 344.225 166.006 344.567 166.266 344.809C166.53 345.046 166.874 345.164 167.298 345.164ZM169.014 343.558C168.896 343.667 168.757 343.763 168.597 343.845C168.442 343.922 168.29 343.961 168.139 343.961C167.939 343.961 167.779 343.895 167.661 343.763C167.547 343.631 167.49 343.48 167.49 343.312C167.49 343.047 167.606 342.815 167.838 342.614C168.075 342.414 168.467 342.268 169.014 342.177V343.558ZM180.921 344.111C180.779 344.348 180.554 344.562 180.244 344.754C179.934 344.941 179.59 345.071 179.212 345.144L178.651 345.684C178.874 345.807 179.057 345.937 179.198 346.073C179.344 346.21 179.417 346.39 179.417 346.613C179.417 346.955 179.239 347.215 178.884 347.393C178.528 347.575 178.041 347.707 177.421 347.789L177.229 347.215C177.448 347.183 177.642 347.128 177.81 347.051C177.979 346.973 178.063 346.887 178.063 346.791C178.063 346.682 177.986 346.572 177.831 346.463C177.676 346.354 177.469 346.233 177.209 346.101L178.357 345.198C177.747 345.166 177.234 345.016 176.819 344.747C176.404 344.474 176.095 344.114 175.889 343.667C175.684 343.216 175.582 342.703 175.582 342.129C175.582 341.423 175.741 340.803 176.06 340.27C176.384 339.736 176.799 339.328 177.305 339.046C177.815 338.759 178.337 338.615 178.87 338.615C179.244 338.615 179.567 338.677 179.841 338.8C180.114 338.918 180.321 339.08 180.463 339.285C180.604 339.49 180.675 339.718 180.675 339.969C180.675 340.256 180.572 340.479 180.367 340.639C180.166 340.798 179.893 340.894 179.547 340.926C179.387 340.47 179.223 340.135 179.055 339.921C178.886 339.702 178.683 339.593 178.446 339.593C178.091 339.593 177.817 339.755 177.626 340.078C177.434 340.402 177.339 340.878 177.339 341.507C177.339 341.899 177.407 342.288 177.544 342.676C177.685 343.059 177.892 343.378 178.166 343.633C178.444 343.883 178.779 344.009 179.171 344.009C179.499 344.009 179.775 343.972 179.998 343.899C180.221 343.822 180.456 343.708 180.702 343.558L180.921 344.111ZM186.251 337.891C186.256 337.872 186.269 337.831 186.292 337.768C186.319 337.704 186.358 337.645 186.408 337.59C186.458 337.531 186.52 337.501 186.593 337.501C186.62 337.501 186.641 337.503 186.654 337.508L187.933 337.822C188.038 337.85 188.138 337.863 188.234 337.863C188.489 337.863 188.71 337.786 188.897 337.631C189.088 337.471 189.232 337.28 189.327 337.057C189.428 336.833 189.478 336.628 189.478 336.441L188.917 336.4C188.908 336.419 188.883 336.457 188.842 336.517C188.805 336.571 188.755 336.624 188.692 336.674C188.628 336.719 188.559 336.733 188.486 336.715L187.078 336.38C186.978 336.357 186.891 336.346 186.818 336.346C186.577 336.346 186.37 336.425 186.196 336.585C186.023 336.744 185.893 336.934 185.807 337.152C185.725 337.367 185.684 337.556 185.684 337.72L185.691 337.802L186.251 337.891ZM186.217 345.164C186.509 345.164 186.78 345.109 187.03 345C187.286 344.895 187.5 344.763 187.673 344.604C187.851 344.444 187.974 344.285 188.042 344.125L188.124 344.146L188.145 344.241C188.208 344.524 188.318 344.745 188.473 344.904C188.632 345.064 188.887 345.144 189.238 345.144C189.494 345.144 189.699 345.123 189.854 345.082C190.013 345.041 190.17 344.973 190.325 344.877L190.455 344.002L190.189 343.954C189.97 343.913 189.815 343.858 189.724 343.79C189.637 343.717 189.585 343.624 189.567 343.51C189.548 343.396 189.539 343.204 189.539 342.936V340.782C189.539 340.053 189.387 339.522 189.081 339.189C188.776 338.852 188.336 338.684 187.762 338.684C187.374 338.684 186.962 338.766 186.525 338.93C186.087 339.089 185.72 339.294 185.424 339.545C185.132 339.796 184.986 340.044 184.986 340.29C184.986 340.614 185.103 340.828 185.335 340.933C185.568 341.037 185.871 341.09 186.244 341.09C186.276 340.689 186.31 340.39 186.347 340.194C186.383 339.998 186.443 339.855 186.525 339.764C186.611 339.668 186.736 339.62 186.901 339.62C187.233 339.62 187.488 339.759 187.666 340.037C187.844 340.315 187.933 340.661 187.933 341.076V341.589C187.249 341.612 186.673 341.726 186.203 341.931C185.734 342.136 185.381 342.4 185.144 342.724C184.911 343.047 184.795 343.4 184.795 343.783C184.795 344.225 184.925 344.567 185.185 344.809C185.449 345.046 185.793 345.164 186.217 345.164ZM187.933 343.558C187.814 343.667 187.675 343.763 187.516 343.845C187.361 343.922 187.208 343.961 187.058 343.961C186.857 343.961 186.698 343.895 186.579 343.763C186.465 343.631 186.408 343.48 186.408 343.312C186.408 343.047 186.525 342.815 186.757 342.614C186.994 342.414 187.386 342.268 187.933 342.177V343.558ZM197.583 345.185C198.176 345.185 198.707 345.046 199.176 344.768C199.646 344.485 200.012 344.089 200.277 343.578C200.541 343.068 200.673 342.48 200.673 341.814C200.673 341.149 200.559 340.582 200.331 340.112C200.104 339.638 199.769 339.278 199.327 339.032C198.889 338.786 198.36 338.663 197.741 338.663C197.217 338.663 196.711 338.795 196.223 339.06C195.735 339.324 195.337 339.707 195.027 340.208C194.717 340.705 194.562 341.286 194.562 341.951C194.562 342.557 194.667 343.104 194.876 343.592C195.086 344.075 195.416 344.462 195.868 344.754C196.323 345.041 196.895 345.185 197.583 345.185ZM197.467 339.736C197.996 339.736 198.367 340.01 198.581 340.557C198.8 341.104 198.91 341.769 198.91 342.553C198.91 343.063 198.818 343.464 198.636 343.756C198.454 344.043 198.178 344.187 197.809 344.187C197.289 344.187 196.909 343.945 196.667 343.462C196.43 342.974 196.312 342.32 196.312 341.5C196.312 340.958 196.403 340.529 196.585 340.215C196.772 339.896 197.066 339.736 197.467 339.736Z" fill="black"/>
</svg>
