<svg width="300" height="367" viewBox="0 0 300 367" fill="none" xmlns="http://www.w3.org/2000/svg">
<rect y="62" width="300" height="43" fill="#4A52FF"/>
<rect y="105" width="300" height="43" fill="#DC77FF"/>
<rect y="148" width="300" height="43" fill="#FF6DDF"/>
<rect y="191" width="300" height="43" fill="#FF457D"/>
<rect y="234" width="300" height="43" fill="#FFAA29"/>
<rect y="277" width="300" height="43" fill="#FFF171"/>
<rect y="320" width="300" height="43" fill="#BBFF4D"/>
<path d="M82.6406 219.047C82.6406 245.766 89.1094 264.094 102.047 274.031C115.078 283.875 131.625 288.797 151.688 288.797C175.781 288.797 193.5 282.516 204.844 269.953C216.188 257.391 221.953 238.266 222.141 212.578L222.844 126.094L246.188 120.75L247.734 110.062H180.516L179.109 120.75L204.844 126.656L204.422 217.219C204.328 235.125 200.344 248.438 192.469 257.156C184.594 265.875 173.344 270.234 158.719 270.234C143.625 270.234 131.672 265.594 122.859 256.312C114.141 246.938 109.781 232.594 109.781 213.281V126.094L133.547 120.75L134.812 110.062H58.5938L56.7656 120.75L82.6406 126.656V219.047Z" fill="white"/>
<path d="M102.047 274.031L100.219 276.41L100.229 276.418L100.239 276.425L102.047 274.031ZM222.141 212.578L219.141 212.554L219.141 212.556L222.141 212.578ZM222.844 126.094L222.174 123.169L219.863 123.698L219.844 126.069L222.844 126.094ZM246.188 120.75L246.857 123.674L248.862 123.215L249.157 121.18L246.188 120.75ZM247.734 110.062L250.703 110.492L251.2 107.062H247.734V110.062ZM180.516 110.062V107.062H177.885L177.541 109.671L180.516 110.062ZM179.109 120.75L176.135 120.359L175.779 123.064L178.438 123.674L179.109 120.75ZM204.844 126.656L207.844 126.67L207.855 124.269L205.515 123.732L204.844 126.656ZM204.422 217.219L207.422 217.234L207.422 217.233L204.422 217.219ZM122.859 256.312L120.663 258.356L120.673 258.367L120.684 258.378L122.859 256.312ZM109.781 126.094L109.123 123.167L106.781 123.693V126.094H109.781ZM133.547 120.75L134.205 123.677L136.276 123.211L136.526 121.103L133.547 120.75ZM134.812 110.062L137.792 110.415L138.189 107.062H134.812V110.062ZM58.5938 110.062V107.062H56.0633L55.6367 109.557L58.5938 110.062ZM56.7656 120.75L53.8086 120.244L53.3298 123.043L56.098 123.675L56.7656 120.75ZM82.6406 126.656H85.6406V124.264L83.3082 123.731L82.6406 126.656ZM79.6406 219.047C79.6406 246.107 86.1746 265.622 100.219 276.41L103.874 271.652C92.0441 262.565 85.6406 245.425 85.6406 219.047H79.6406ZM100.239 276.425C113.9 286.745 131.125 291.797 151.688 291.797V285.797C132.125 285.797 116.256 281.005 103.855 271.637L100.239 276.425ZM151.688 291.797C176.262 291.797 194.95 285.386 207.07 271.964L202.617 267.943C192.05 279.646 175.301 285.797 151.688 285.797V291.797ZM207.07 271.964C219.108 258.633 224.95 238.655 225.141 212.6L219.141 212.556C218.956 237.877 213.267 256.148 202.617 267.943L207.07 271.964ZM225.141 212.603L225.844 126.118L219.844 126.069L219.141 212.554L225.141 212.603ZM223.513 129.018L246.857 123.674L245.518 117.826L222.174 123.169L223.513 129.018ZM249.157 121.18L250.703 110.492L244.765 109.633L243.218 120.32L249.157 121.18ZM247.734 107.062H180.516V113.062H247.734V107.062ZM177.541 109.671L176.135 120.359L182.084 121.141L183.49 110.454L177.541 109.671ZM178.438 123.674L204.173 129.58L205.515 123.732L179.78 117.826L178.438 123.674ZM201.844 126.642L201.422 217.205L207.422 217.233L207.844 126.67L201.844 126.642ZM201.422 217.203C201.33 234.745 197.42 247.199 190.242 255.145L194.695 259.167C203.268 249.676 207.326 235.505 207.422 217.234L201.422 217.203ZM190.242 255.145C183.071 263.086 172.719 267.234 158.719 267.234V273.234C173.969 273.234 186.117 268.664 194.695 259.167L190.242 255.145ZM158.719 267.234C144.288 267.234 133.179 262.825 125.035 254.247L120.684 258.378C130.164 268.363 142.962 273.234 158.719 273.234V267.234ZM125.056 254.269C117.063 245.674 112.781 232.212 112.781 213.281H106.781C106.781 232.976 111.219 248.201 120.663 258.356L125.056 254.269ZM112.781 213.281V126.094H106.781V213.281H112.781ZM110.439 129.021L134.205 123.677L132.889 117.823L109.123 123.167L110.439 129.021ZM136.526 121.103L137.792 110.415L131.833 109.71L130.568 120.397L136.526 121.103ZM134.812 107.062H58.5938V113.062H134.812V107.062ZM55.6367 109.557L53.8086 120.244L59.7227 121.256L61.5508 110.568L55.6367 109.557ZM56.098 123.675L81.973 129.581L83.3082 123.731L57.4332 117.825L56.098 123.675ZM79.6406 126.656V219.047H85.6406V126.656H79.6406Z" fill="black"/>
<path d="M44.2104 318.746C44.2104 319.708 44.3927 320.441 44.7573 320.947C45.1264 321.453 45.5753 321.786 46.104 321.945C46.6372 322.105 47.2342 322.185 47.895 322.185C49.1255 322.185 50.046 321.868 50.6567 321.234C51.2674 320.596 51.5796 319.621 51.5932 318.309L51.6206 314.631L52.7553 314.269L52.8511 313.496H49.2143L49.1186 314.269L50.3423 314.665L50.3354 318.514C50.3354 319.302 50.16 319.888 49.8091 320.271C49.4581 320.653 48.9682 320.845 48.3393 320.845C47.6557 320.845 47.118 320.646 46.7261 320.25C46.3341 319.849 46.1382 319.234 46.1382 318.404V314.631L47.2866 314.269L47.3891 313.496H43.0757L42.9321 314.269L44.2104 314.665V318.746ZM60.6082 321.166L59.6785 320.824V317.803C59.9884 317.493 60.3575 317.338 60.7859 317.338C61.073 317.338 61.2986 317.438 61.4627 317.639C61.6268 317.835 61.7088 318.142 61.7088 318.562V320.824L61.2371 321.214L61.2029 322H64.2312L64.3406 321.166L63.3426 320.824V317.707C63.3426 317.06 63.1967 316.572 62.9051 316.244C62.6134 315.916 62.2033 315.752 61.6746 315.752C61.2964 315.752 60.9432 315.848 60.615 316.039C60.2869 316.23 59.9702 316.495 59.6648 316.832L59.576 316.812L59.7127 316.025L59.5281 315.827L57.1287 316.06L56.9988 316.894L58.0105 317.352V320.824L57.0125 321.214L56.9168 322H60.4578L60.6082 321.166ZM70.3068 315C70.5665 315 70.7875 314.957 70.9698 314.87C71.1567 314.784 71.298 314.667 71.3937 314.521C71.4894 314.376 71.5372 314.216 71.5372 314.043C71.5372 313.874 71.4871 313.722 71.3868 313.585C71.2866 313.444 71.143 313.332 70.9562 313.25C70.7693 313.168 70.5528 313.127 70.3068 313.127C70.0652 313.127 69.8533 313.168 69.671 313.25C69.4933 313.327 69.3543 313.435 69.254 313.571C69.1583 313.708 69.1105 313.861 69.1105 314.029C69.1105 314.307 69.2107 314.54 69.4112 314.727C69.6163 314.909 69.9148 315 70.3068 315ZM72.2482 322L72.3234 321.132L71.2228 320.817V316.08L70.9493 315.807L68.7071 315.971L68.5568 316.825L69.5753 317.386V320.817L68.5294 321.125L68.4611 322H72.2482ZM77.1821 317.003L79.0551 322.205L80.4428 322.055L82.268 316.982L82.9243 316.654L83.0541 315.861H80.436L80.2993 316.654L81.1332 317.003L80.0258 320.202L78.9936 316.982L79.8071 316.654L79.9028 315.861H76.4916L76.3823 316.654L77.1821 317.003ZM89.7449 322.212C90.1869 322.212 90.6244 322.137 91.0574 321.986C91.4903 321.836 91.8458 321.617 92.1238 321.33L91.9871 320.558C91.7182 320.699 91.4561 320.792 91.2009 320.838C90.9503 320.879 90.6723 320.899 90.367 320.899C89.852 320.899 89.4623 320.742 89.198 320.428C88.9337 320.113 88.7878 319.712 88.7605 319.225L91.8435 319.156C91.8709 319.033 91.8982 318.842 91.9255 318.582C91.9574 318.322 91.9734 318.138 91.9734 318.028C91.9734 317.554 91.8914 317.14 91.7273 316.784C91.5678 316.429 91.3399 316.155 91.0437 315.964C90.7475 315.772 90.4034 315.677 90.0115 315.677C89.5193 315.677 89.0431 315.82 88.5828 316.107C88.127 316.39 87.7533 316.789 87.4617 317.304C87.1746 317.819 87.031 318.407 87.031 319.067C87.031 319.737 87.1518 320.309 87.3933 320.783C87.6349 321.257 87.9607 321.615 88.3709 321.856C88.781 322.093 89.239 322.212 89.7449 322.212ZM89.6287 316.818C89.8884 316.818 90.0798 316.916 90.2029 317.112C90.3259 317.304 90.3875 317.563 90.3875 317.892C90.3875 317.955 90.3829 318.037 90.3738 318.138C90.3692 318.238 90.3601 318.309 90.3464 318.35L88.74 318.507C88.7491 318.16 88.7947 317.86 88.8767 317.604C88.9587 317.349 89.0658 317.156 89.198 317.023C89.3302 316.887 89.4737 316.818 89.6287 316.818ZM100.489 321.057L98.8761 320.729V318.705C98.9535 318.359 99.0834 318.076 99.2657 317.857C99.4526 317.639 99.6713 317.529 99.922 317.529C100.182 317.529 100.469 317.63 100.783 317.83C100.979 317.666 101.132 317.491 101.241 317.304C101.351 317.112 101.405 316.896 101.405 316.654C101.405 316.39 101.316 316.169 101.139 315.991C100.966 315.813 100.731 315.725 100.435 315.725C100.093 315.725 99.7738 315.859 99.4776 316.128C99.1859 316.392 98.9558 316.796 98.7872 317.338L98.6573 317.304L98.7872 316.039L98.5753 315.82L96.3468 316.046L96.21 316.88L97.2491 317.311V320.824L96.2237 321.193L96.1143 321.993H100.407L100.489 321.057ZM107.317 322.239C107.777 322.239 108.199 322.16 108.581 322C108.969 321.845 109.276 321.622 109.504 321.33C109.732 321.038 109.846 320.701 109.846 320.318C109.846 319.967 109.755 319.664 109.573 319.409C109.39 319.149 109.172 318.935 108.916 318.767C108.661 318.593 108.331 318.402 107.925 318.192C107.647 318.051 107.428 317.933 107.269 317.837C107.109 317.737 106.977 317.627 106.872 317.509C106.768 317.39 106.715 317.26 106.715 317.119C106.715 316.937 106.774 316.784 106.893 316.661C107.016 316.538 107.18 316.477 107.385 316.477C107.608 316.477 107.814 316.549 108 316.695C108.187 316.841 108.326 317.096 108.417 317.461L108.554 317.898C108.878 317.871 109.147 317.762 109.361 317.57C109.575 317.374 109.682 317.133 109.682 316.846C109.682 316.472 109.5 316.185 109.135 315.984C108.775 315.784 108.301 315.684 107.713 315.684C107.176 315.684 106.727 315.791 106.367 316.005C106.011 316.219 105.749 316.483 105.58 316.798C105.416 317.108 105.334 317.409 105.334 317.7C105.334 318.056 105.426 318.366 105.608 318.63C105.795 318.89 106.013 319.106 106.264 319.279C106.515 319.448 106.841 319.637 107.242 319.847C107.501 319.979 107.702 320.088 107.843 320.175C107.989 320.261 108.107 320.357 108.199 320.462C108.294 320.567 108.342 320.678 108.342 320.797C108.342 320.997 108.272 321.141 108.13 321.228C107.989 321.314 107.784 321.357 107.515 321.357C107.246 321.357 107 321.239 106.777 321.002C106.553 320.76 106.376 320.41 106.244 319.949C105.897 319.977 105.626 320.079 105.43 320.257C105.234 320.435 105.136 320.665 105.136 320.947C105.136 321.189 105.234 321.408 105.43 321.604C105.631 321.799 105.897 321.954 106.23 322.068C106.567 322.182 106.929 322.239 107.317 322.239ZM115.744 315C116.004 315 116.225 314.957 116.407 314.87C116.594 314.784 116.735 314.667 116.831 314.521C116.926 314.376 116.974 314.216 116.974 314.043C116.974 313.874 116.924 313.722 116.824 313.585C116.724 313.444 116.58 313.332 116.393 313.25C116.206 313.168 115.99 313.127 115.744 313.127C115.502 313.127 115.29 313.168 115.108 313.25C114.93 313.327 114.791 313.435 114.691 313.571C114.595 313.708 114.548 313.861 114.548 314.029C114.548 314.307 114.648 314.54 114.848 314.727C115.053 314.909 115.352 315 115.744 315ZM117.685 322L117.76 321.132L116.66 320.817V316.08L116.386 315.807L114.144 315.971L113.994 316.825L115.012 317.386V320.817L113.967 321.125L113.898 322H117.685ZM124.089 322.137C124.517 322.137 124.873 322.046 125.155 321.863C125.442 321.681 125.698 321.435 125.921 321.125L125.996 321.139L126.017 321.207C126.076 321.503 126.203 321.736 126.399 321.904C126.6 322.073 126.871 322.157 127.213 322.157C127.464 322.157 127.678 322.137 127.856 322.096C128.038 322.055 128.259 321.986 128.519 321.891L128.642 321.029L128.396 320.961C128.163 320.893 127.99 320.831 127.876 320.776C127.767 320.717 127.685 320.628 127.63 320.51C127.575 320.391 127.548 320.216 127.548 319.983V313.373L127.274 313.1L124.991 313.277L124.855 314.091L125.969 314.624V315.369L126.044 316.053H126.003C125.903 315.984 125.755 315.927 125.559 315.882C125.367 315.832 125.189 315.807 125.025 315.807C124.424 315.807 123.882 315.973 123.398 316.306C122.92 316.634 122.544 317.074 122.271 317.625C122.002 318.172 121.867 318.757 121.867 319.382C121.867 319.924 121.958 320.405 122.141 320.824C122.323 321.239 122.583 321.562 122.92 321.795C123.257 322.023 123.647 322.137 124.089 322.137ZM124.759 316.866C124.946 316.866 125.146 316.932 125.36 317.064C125.579 317.197 125.775 317.388 125.948 317.639V320.332C125.798 320.46 125.625 320.567 125.429 320.653C125.233 320.735 125.041 320.776 124.855 320.776C124.604 320.776 124.385 320.697 124.198 320.537C124.016 320.373 123.875 320.145 123.774 319.854C123.674 319.562 123.624 319.22 123.624 318.828C123.624 318.277 123.72 317.812 123.911 317.434C124.103 317.055 124.385 316.866 124.759 316.866ZM134.163 322.164C134.455 322.164 134.726 322.109 134.977 322C135.232 321.895 135.446 321.763 135.619 321.604C135.797 321.444 135.92 321.285 135.989 321.125L136.071 321.146L136.091 321.241C136.155 321.524 136.264 321.745 136.419 321.904C136.579 322.064 136.834 322.144 137.185 322.144C137.44 322.144 137.645 322.123 137.8 322.082C137.96 322.041 138.117 321.973 138.272 321.877L138.402 321.002L138.135 320.954C137.916 320.913 137.761 320.858 137.67 320.79C137.584 320.717 137.531 320.624 137.513 320.51C137.495 320.396 137.486 320.204 137.486 319.936V317.782C137.486 317.053 137.333 316.522 137.028 316.189C136.722 315.852 136.283 315.684 135.708 315.684C135.321 315.684 134.909 315.766 134.471 315.93C134.034 316.089 133.667 316.294 133.37 316.545C133.079 316.796 132.933 317.044 132.933 317.29C132.933 317.614 133.049 317.828 133.282 317.933C133.514 318.037 133.817 318.09 134.191 318.09C134.223 317.689 134.257 317.39 134.293 317.194C134.33 316.998 134.389 316.855 134.471 316.764C134.558 316.668 134.683 316.62 134.847 316.62C135.18 316.62 135.435 316.759 135.613 317.037C135.79 317.315 135.879 317.661 135.879 318.076V318.589C135.196 318.612 134.619 318.726 134.15 318.931C133.68 319.136 133.327 319.4 133.09 319.724C132.858 320.047 132.742 320.4 132.742 320.783C132.742 321.225 132.871 321.567 133.131 321.809C133.396 322.046 133.74 322.164 134.163 322.164ZM135.879 320.558C135.761 320.667 135.622 320.763 135.462 320.845C135.307 320.922 135.155 320.961 135.004 320.961C134.804 320.961 134.644 320.895 134.526 320.763C134.412 320.631 134.355 320.48 134.355 320.312C134.355 320.047 134.471 319.815 134.703 319.614C134.94 319.414 135.332 319.268 135.879 319.177V320.558ZM144.716 322.137C145.145 322.137 145.5 322.046 145.783 321.863C146.07 321.681 146.325 321.435 146.549 321.125L146.624 321.139L146.644 321.207C146.703 321.503 146.831 321.736 147.027 321.904C147.228 322.073 147.499 322.157 147.841 322.157C148.091 322.157 148.305 322.137 148.483 322.096C148.665 322.055 148.886 321.986 149.146 321.891L149.269 321.029L149.023 320.961C148.791 320.893 148.618 320.831 148.504 320.776C148.394 320.717 148.312 320.628 148.258 320.51C148.203 320.391 148.175 320.216 148.175 319.983V313.373L147.902 313.1L145.619 313.277L145.482 314.091L146.596 314.624V315.369L146.672 316.053H146.631C146.53 315.984 146.382 315.927 146.186 315.882C145.995 315.832 145.817 315.807 145.653 315.807C145.051 315.807 144.509 315.973 144.026 316.306C143.548 316.634 143.172 317.074 142.898 317.625C142.629 318.172 142.495 318.757 142.495 319.382C142.495 319.924 142.586 320.405 142.768 320.824C142.951 321.239 143.21 321.562 143.548 321.795C143.885 322.023 144.274 322.137 144.716 322.137ZM145.386 316.866C145.573 316.866 145.774 316.932 145.988 317.064C146.207 317.197 146.403 317.388 146.576 317.639V320.332C146.425 320.46 146.252 320.567 146.056 320.653C145.86 320.735 145.669 320.776 145.482 320.776C145.231 320.776 145.013 320.697 144.826 320.537C144.644 320.373 144.502 320.145 144.402 319.854C144.302 319.562 144.252 319.22 144.252 318.828C144.252 318.277 144.347 317.812 144.539 317.434C144.73 317.055 145.013 316.866 145.386 316.866ZM156.015 322.212C156.457 322.212 156.894 322.137 157.327 321.986C157.76 321.836 158.116 321.617 158.394 321.33L158.257 320.558C157.988 320.699 157.726 320.792 157.471 320.838C157.22 320.879 156.942 320.899 156.637 320.899C156.122 320.899 155.732 320.742 155.468 320.428C155.203 320.113 155.058 319.712 155.03 319.225L158.113 319.156C158.141 319.033 158.168 318.842 158.195 318.582C158.227 318.322 158.243 318.138 158.243 318.028C158.243 317.554 158.161 317.14 157.997 316.784C157.838 316.429 157.61 316.155 157.313 315.964C157.017 315.772 156.673 315.677 156.281 315.677C155.789 315.677 155.313 315.82 154.853 316.107C154.397 316.39 154.023 316.789 153.731 317.304C153.444 317.819 153.301 318.407 153.301 319.067C153.301 319.737 153.422 320.309 153.663 320.783C153.905 321.257 154.23 321.615 154.641 321.856C155.051 322.093 155.509 322.212 156.015 322.212ZM155.898 316.818C156.158 316.818 156.35 316.916 156.473 317.112C156.596 317.304 156.657 317.563 156.657 317.892C156.657 317.955 156.653 318.037 156.644 318.138C156.639 318.238 156.63 318.309 156.616 318.35L155.01 318.507C155.019 318.16 155.064 317.86 155.146 317.604C155.229 317.349 155.336 317.156 155.468 317.023C155.6 316.887 155.743 316.818 155.898 316.818ZM172.93 322L173.019 321.221L171.741 320.756L172.247 319.32H175.015L175.521 320.742L174.366 321.282L174.27 322.007H178.508L178.584 321.234L177.606 320.763L174.94 313.325L173.245 313.653L170.415 320.735L169.362 321.275L169.266 322H172.93ZM173.675 315.273L174.673 318.254H172.616L173.675 315.273ZM183.675 321.658C183.953 321.822 184.306 321.945 184.734 322.027C185.163 322.114 185.552 322.157 185.903 322.157C186.537 322.157 187.127 322.018 187.674 321.74C188.225 321.458 188.665 321.054 188.993 320.53C189.326 320.002 189.492 319.389 189.492 318.691C189.492 318.117 189.396 317.609 189.205 317.167C189.018 316.72 188.749 316.374 188.398 316.128C188.052 315.877 187.646 315.752 187.182 315.752C186.826 315.752 186.5 315.843 186.204 316.025C185.908 316.208 185.607 316.472 185.302 316.818L185.22 316.805L185.315 316.094V313.394L185.042 313.127L182.807 313.291L182.663 314.111L183.675 314.638V321.658ZM185.315 317.728C185.707 317.358 186.12 317.174 186.553 317.174C186.949 317.174 187.236 317.365 187.414 317.748C187.596 318.131 187.687 318.573 187.687 319.074C187.687 319.48 187.633 319.831 187.523 320.127C187.414 320.419 187.266 320.64 187.079 320.79C186.897 320.94 186.692 321.016 186.464 321.016C186.245 321.016 186.033 320.979 185.828 320.906C185.628 320.829 185.457 320.722 185.315 320.585V317.728ZM196.231 322.212C196.673 322.212 197.11 322.137 197.543 321.986C197.976 321.836 198.332 321.617 198.61 321.33L198.473 320.558C198.204 320.699 197.942 320.792 197.687 320.838C197.436 320.879 197.158 320.899 196.853 320.899C196.338 320.899 195.948 320.742 195.684 320.428C195.42 320.113 195.274 319.712 195.246 319.225L198.329 319.156C198.357 319.033 198.384 318.842 198.411 318.582C198.443 318.322 198.459 318.138 198.459 318.028C198.459 317.554 198.377 317.14 198.213 316.784C198.054 316.429 197.826 316.155 197.53 315.964C197.233 315.772 196.889 315.677 196.497 315.677C196.005 315.677 195.529 315.82 195.069 316.107C194.613 316.39 194.239 316.789 193.948 317.304C193.66 317.819 193.517 318.407 193.517 319.067C193.517 319.737 193.638 320.309 193.879 320.783C194.121 321.257 194.447 321.615 194.857 321.856C195.267 322.093 195.725 322.212 196.231 322.212ZM196.115 316.818C196.374 316.818 196.566 316.916 196.689 317.112C196.812 317.304 196.873 317.563 196.873 317.892C196.873 317.955 196.869 318.037 196.86 318.138C196.855 318.238 196.846 318.309 196.832 318.35L195.226 318.507C195.235 318.16 195.281 317.86 195.363 317.604C195.445 317.349 195.552 317.156 195.684 317.023C195.816 316.887 195.96 316.818 196.115 316.818ZM206.975 321.057L205.362 320.729V318.705C205.439 318.359 205.569 318.076 205.752 317.857C205.938 317.639 206.157 317.529 206.408 317.529C206.668 317.529 206.955 317.63 207.269 317.83C207.465 317.666 207.618 317.491 207.727 317.304C207.837 317.112 207.891 316.896 207.891 316.654C207.891 316.39 207.802 316.169 207.625 315.991C207.451 315.813 207.217 315.725 206.921 315.725C206.579 315.725 206.26 315.859 205.963 316.128C205.672 316.392 205.442 316.796 205.273 317.338L205.143 317.304L205.273 316.039L205.061 315.82L202.833 316.046L202.696 316.88L203.735 317.311V320.824L202.71 321.193L202.6 321.993H206.893L206.975 321.057ZM212.299 320.1C212.294 320.615 212.351 321.022 212.47 321.323C212.593 321.624 212.78 321.838 213.03 321.966C213.281 322.093 213.611 322.157 214.021 322.157C214.473 322.157 214.871 322.062 215.218 321.87C215.569 321.679 215.847 321.439 216.052 321.152L215.881 320.517C215.858 320.53 215.803 320.56 215.717 320.605C215.635 320.651 215.528 320.697 215.395 320.742C215.268 320.783 215.138 320.804 215.006 320.804C214.637 320.804 214.375 320.719 214.22 320.551C214.069 320.382 213.994 320.1 213.994 319.703L214.008 317.078H215.86L215.929 316.107H214.028V314.604H213.29C213.048 314.95 212.775 315.278 212.47 315.588C212.169 315.893 211.861 316.153 211.547 316.367V317.058H212.319L212.299 320.1ZM221.553 322.164C221.845 322.164 222.116 322.109 222.366 322C222.622 321.895 222.836 321.763 223.009 321.604C223.187 321.444 223.31 321.285 223.378 321.125L223.46 321.146L223.481 321.241C223.545 321.524 223.654 321.745 223.809 321.904C223.968 322.064 224.224 322.144 224.574 322.144C224.83 322.144 225.035 322.123 225.19 322.082C225.349 322.041 225.506 321.973 225.661 321.877L225.791 321.002L225.525 320.954C225.306 320.913 225.151 320.858 225.06 320.79C224.973 320.717 224.921 320.624 224.903 320.51C224.884 320.396 224.875 320.204 224.875 319.936V317.782C224.875 317.053 224.723 316.522 224.417 316.189C224.112 315.852 223.672 315.684 223.098 315.684C222.711 315.684 222.298 315.766 221.861 315.93C221.423 316.089 221.056 316.294 220.76 316.545C220.468 316.796 220.323 317.044 220.323 317.29C220.323 317.614 220.439 317.828 220.671 317.933C220.904 318.037 221.207 318.09 221.58 318.09C221.612 317.689 221.646 317.39 221.683 317.194C221.719 316.998 221.779 316.855 221.861 316.764C221.947 316.668 222.073 316.62 222.237 316.62C222.569 316.62 222.824 316.759 223.002 317.037C223.18 317.315 223.269 317.661 223.269 318.076V318.589C222.585 318.612 222.009 318.726 221.539 318.931C221.07 319.136 220.717 319.4 220.48 319.724C220.247 320.047 220.131 320.4 220.131 320.783C220.131 321.225 220.261 321.567 220.521 321.809C220.785 322.046 221.129 322.164 221.553 322.164ZM223.269 320.558C223.15 320.667 223.011 320.763 222.852 320.845C222.697 320.922 222.544 320.961 222.394 320.961C222.193 320.961 222.034 320.895 221.915 320.763C221.801 320.631 221.744 320.48 221.744 320.312C221.744 320.047 221.861 319.815 222.093 319.614C222.33 319.414 222.722 319.268 223.269 319.177V320.558ZM239.009 322.137C239.437 322.137 239.793 322.046 240.075 321.863C240.362 321.681 240.617 321.435 240.841 321.125L240.916 321.139L240.936 321.207C240.996 321.503 241.123 321.736 241.319 321.904C241.52 322.073 241.791 322.157 242.133 322.157C242.383 322.157 242.598 322.137 242.775 322.096C242.958 322.055 243.179 321.986 243.438 321.891L243.561 321.029L243.315 320.961C243.083 320.893 242.91 320.831 242.796 320.776C242.686 320.717 242.604 320.628 242.55 320.51C242.495 320.391 242.468 320.216 242.468 319.983V313.373L242.194 313.1L239.911 313.277L239.774 314.091L240.889 314.624V315.369L240.964 316.053H240.923C240.822 315.984 240.674 315.927 240.478 315.882C240.287 315.832 240.109 315.807 239.945 315.807C239.344 315.807 238.801 315.973 238.318 316.306C237.84 316.634 237.464 317.074 237.19 317.625C236.921 318.172 236.787 318.757 236.787 319.382C236.787 319.924 236.878 320.405 237.06 320.824C237.243 321.239 237.502 321.562 237.84 321.795C238.177 322.023 238.567 322.137 239.009 322.137ZM239.679 316.866C239.865 316.866 240.066 316.932 240.28 317.064C240.499 317.197 240.695 317.388 240.868 317.639V320.332C240.718 320.46 240.544 320.567 240.349 320.653C240.153 320.735 239.961 320.776 239.774 320.776C239.524 320.776 239.305 320.697 239.118 320.537C238.936 320.373 238.794 320.145 238.694 319.854C238.594 319.562 238.544 319.22 238.544 318.828C238.544 318.277 238.64 317.812 238.831 317.434C239.022 317.055 239.305 316.866 239.679 316.866ZM250.307 322.212C250.749 322.212 251.186 322.137 251.619 321.986C252.052 321.836 252.408 321.617 252.686 321.33L252.549 320.558C252.28 320.699 252.018 320.792 251.763 320.838C251.512 320.879 251.234 320.899 250.929 320.899C250.414 320.899 250.024 320.742 249.76 320.428C249.496 320.113 249.35 319.712 249.322 319.225L252.405 319.156C252.433 319.033 252.46 318.842 252.487 318.582C252.519 318.322 252.535 318.138 252.535 318.028C252.535 317.554 252.453 317.14 252.289 316.784C252.13 316.429 251.902 316.155 251.606 315.964C251.309 315.772 250.965 315.677 250.573 315.677C250.081 315.677 249.605 315.82 249.145 316.107C248.689 316.39 248.315 316.789 248.024 317.304C247.737 317.819 247.593 318.407 247.593 319.067C247.593 319.737 247.714 320.309 247.955 320.783C248.197 321.257 248.523 321.615 248.933 321.856C249.343 322.093 249.801 322.212 250.307 322.212ZM250.191 316.818C250.45 316.818 250.642 316.916 250.765 317.112C250.888 317.304 250.949 317.563 250.949 317.892C250.949 317.955 250.945 318.037 250.936 318.138C250.931 318.238 250.922 318.309 250.908 318.35L249.302 318.507C249.311 318.16 249.357 317.86 249.439 317.604C249.521 317.349 249.628 317.156 249.76 317.023C249.892 316.887 250.036 316.818 250.191 316.818ZM102.763 340.178C103.26 340.178 103.734 340.109 104.185 339.973C104.641 339.836 105.04 339.663 105.381 339.453C105.723 339.239 105.99 339.02 106.181 338.797L105.853 338.079C105.516 338.325 105.144 338.528 104.739 338.688C104.338 338.842 103.916 338.92 103.474 338.92C102.868 338.92 102.335 338.781 101.875 338.503C101.414 338.225 101.054 337.817 100.794 337.279C100.539 336.742 100.412 336.094 100.412 335.338C100.412 334.686 100.51 334.13 100.706 333.67C100.906 333.205 101.189 332.854 101.553 332.617C101.918 332.38 102.344 332.262 102.832 332.262C103.169 332.262 103.483 332.321 103.775 332.439C104.071 332.558 104.299 332.717 104.459 332.918L104.814 334.463L105.703 334.586L105.908 332.002C105.63 331.788 105.238 331.621 104.732 331.503C104.226 331.38 103.729 331.318 103.242 331.318C102.107 331.318 101.17 331.555 100.432 332.029C99.6985 332.503 99.1653 333.098 98.8326 333.813C98.4999 334.529 98.3336 335.256 98.3336 335.994C98.3336 336.869 98.5181 337.621 98.8873 338.25C99.2564 338.879 99.7737 339.357 100.439 339.686C101.104 340.014 101.879 340.178 102.763 340.178ZM113.227 340.185C113.82 340.185 114.351 340.046 114.82 339.768C115.29 339.485 115.656 339.089 115.921 338.578C116.185 338.068 116.317 337.48 116.317 336.814C116.317 336.149 116.203 335.582 115.975 335.112C115.748 334.638 115.413 334.278 114.971 334.032C114.533 333.786 114.004 333.663 113.385 333.663C112.861 333.663 112.355 333.795 111.867 334.06C111.379 334.324 110.981 334.707 110.671 335.208C110.361 335.705 110.206 336.286 110.206 336.951C110.206 337.557 110.311 338.104 110.52 338.592C110.73 339.075 111.06 339.462 111.512 339.754C111.967 340.041 112.539 340.185 113.227 340.185ZM113.111 334.736C113.64 334.736 114.011 335.01 114.225 335.557C114.444 336.104 114.554 336.769 114.554 337.553C114.554 338.063 114.462 338.464 114.28 338.756C114.098 339.043 113.822 339.187 113.453 339.187C112.933 339.187 112.553 338.945 112.311 338.462C112.074 337.974 111.956 337.32 111.956 336.5C111.956 335.958 112.047 335.529 112.229 335.215C112.416 334.896 112.71 334.736 113.111 334.736ZM124.074 339.166L123.158 338.824V335.816C123.313 335.661 123.487 335.545 123.678 335.468C123.869 335.386 124.07 335.345 124.279 335.345C124.557 335.345 124.776 335.447 124.936 335.652C125.1 335.853 125.182 336.147 125.182 336.534V338.824L124.738 339.207L124.703 340H127.643L127.759 339.166L126.809 338.824V335.844C126.977 335.684 127.148 335.561 127.321 335.475C127.495 335.388 127.688 335.345 127.903 335.345C128.194 335.345 128.418 335.447 128.572 335.652C128.727 335.857 128.805 336.151 128.805 336.534V338.824L128.374 339.207L128.354 340H131.293L131.416 339.166L130.439 338.824V335.728C130.439 335.08 130.297 334.597 130.015 334.278C129.737 333.955 129.329 333.793 128.791 333.793C128.099 333.793 127.424 334.167 126.768 334.914L126.672 334.9C126.567 334.504 126.38 334.217 126.112 334.039C125.847 333.857 125.528 333.766 125.154 333.766C124.444 333.766 123.774 334.121 123.145 334.832L123.063 334.818L123.199 334.039L123.008 333.834L120.588 334.073L120.465 334.9L121.497 335.352V338.824L120.499 339.207L120.41 340H123.938L124.074 339.166ZM138.223 339.645V341.367L139.59 341.716L139.474 342.536H135.461L135.543 341.729L136.596 341.36V335.324L135.557 334.894L135.687 334.053L138.1 333.834L138.305 334.025L138.182 334.75L138.251 334.771C138.456 334.479 138.715 334.23 139.03 334.025C139.349 333.816 139.713 333.711 140.124 333.711C140.529 333.711 140.896 333.818 141.224 334.032C141.557 334.242 141.821 334.572 142.017 335.023C142.213 335.475 142.311 336.044 142.311 336.732C142.311 337.434 142.17 338.043 141.887 338.558C141.609 339.068 141.224 339.458 140.732 339.727C140.244 339.995 139.695 340.13 139.085 340.13C138.679 340.13 138.394 340.1 138.23 340.041L138.223 339.645ZM139.467 335.174C139.075 335.174 138.661 335.352 138.223 335.707V338.858C138.392 338.936 138.556 338.993 138.715 339.029C138.875 339.061 139.062 339.077 139.276 339.077C139.682 339.077 139.998 338.92 140.226 338.605C140.459 338.286 140.575 337.844 140.575 337.279C140.575 336.605 140.481 336.085 140.294 335.721C140.112 335.356 139.836 335.174 139.467 335.174ZM147.224 338.175C147.224 338.89 147.357 339.405 147.621 339.72C147.89 340.03 148.316 340.185 148.899 340.185C149.278 340.185 149.633 340.091 149.966 339.904C150.303 339.717 150.581 339.449 150.8 339.098L150.889 339.111V339.193C150.889 339.517 150.993 339.765 151.203 339.938C151.413 340.112 151.7 340.198 152.064 340.198C152.297 340.198 152.52 340.175 152.734 340.13C152.953 340.089 153.183 340.023 153.425 339.932L153.534 339.07L153.288 339.002C153.065 338.938 152.896 338.874 152.782 338.811C152.668 338.742 152.584 338.646 152.529 338.523C152.474 338.396 152.447 338.218 152.447 337.99V334.066L152.194 333.8L149.966 334.039L149.815 335.064L150.759 335.468V338.168C150.604 338.314 150.449 338.423 150.294 338.496C150.139 338.564 149.952 338.599 149.733 338.599C149.464 338.599 149.262 338.501 149.125 338.305C148.993 338.109 148.927 337.778 148.927 337.313V334.094L148.653 333.827L146.493 333.971L146.329 334.873L147.224 335.42V338.175ZM158.044 338.1C158.04 338.615 158.097 339.022 158.215 339.323C158.338 339.624 158.525 339.838 158.776 339.966C159.026 340.093 159.357 340.157 159.767 340.157C160.218 340.157 160.617 340.062 160.963 339.87C161.314 339.679 161.592 339.439 161.797 339.152L161.626 338.517C161.603 338.53 161.549 338.56 161.462 338.605C161.38 338.651 161.273 338.697 161.141 338.742C161.013 338.783 160.883 338.804 160.751 338.804C160.382 338.804 160.12 338.719 159.965 338.551C159.815 338.382 159.739 338.1 159.739 337.703L159.753 335.078H161.606L161.674 334.107H159.774V332.604H159.035C158.794 332.95 158.52 333.278 158.215 333.588C157.914 333.893 157.607 334.153 157.292 334.367V335.058H158.065L158.044 338.1ZM167.298 340.164C167.59 340.164 167.861 340.109 168.112 340C168.367 339.895 168.581 339.763 168.754 339.604C168.932 339.444 169.055 339.285 169.124 339.125L169.206 339.146L169.226 339.241C169.29 339.524 169.399 339.745 169.554 339.904C169.714 340.064 169.969 340.144 170.32 340.144C170.575 340.144 170.78 340.123 170.935 340.082C171.095 340.041 171.252 339.973 171.407 339.877L171.537 339.002L171.27 338.954C171.051 338.913 170.896 338.858 170.805 338.79C170.719 338.717 170.666 338.624 170.648 338.51C170.63 338.396 170.621 338.204 170.621 337.936V335.782C170.621 335.053 170.468 334.522 170.163 334.189C169.857 333.852 169.417 333.684 168.843 333.684C168.456 333.684 168.043 333.766 167.606 333.93C167.168 334.089 166.802 334.294 166.505 334.545C166.214 334.796 166.068 335.044 166.068 335.29C166.068 335.614 166.184 335.828 166.416 335.933C166.649 336.037 166.952 336.09 167.326 336.09C167.358 335.689 167.392 335.39 167.428 335.194C167.465 334.998 167.524 334.855 167.606 334.764C167.693 334.668 167.818 334.62 167.982 334.62C168.315 334.62 168.57 334.759 168.748 335.037C168.925 335.315 169.014 335.661 169.014 336.076V336.589C168.331 336.612 167.754 336.726 167.285 336.931C166.815 337.136 166.462 337.4 166.225 337.724C165.993 338.047 165.876 338.4 165.876 338.783C165.876 339.225 166.006 339.567 166.266 339.809C166.53 340.046 166.874 340.164 167.298 340.164ZM169.014 338.558C168.896 338.667 168.757 338.763 168.597 338.845C168.442 338.922 168.29 338.961 168.139 338.961C167.939 338.961 167.779 338.895 167.661 338.763C167.547 338.631 167.49 338.48 167.49 338.312C167.49 338.047 167.606 337.815 167.838 337.614C168.075 337.414 168.467 337.268 169.014 337.177V338.558ZM180.921 339.111C180.779 339.348 180.554 339.562 180.244 339.754C179.934 339.941 179.59 340.071 179.212 340.144L178.651 340.684C178.874 340.807 179.057 340.937 179.198 341.073C179.344 341.21 179.417 341.39 179.417 341.613C179.417 341.955 179.239 342.215 178.884 342.393C178.528 342.575 178.041 342.707 177.421 342.789L177.229 342.215C177.448 342.183 177.642 342.128 177.81 342.051C177.979 341.973 178.063 341.887 178.063 341.791C178.063 341.682 177.986 341.572 177.831 341.463C177.676 341.354 177.469 341.233 177.209 341.101L178.357 340.198C177.747 340.166 177.234 340.016 176.819 339.747C176.404 339.474 176.095 339.114 175.889 338.667C175.684 338.216 175.582 337.703 175.582 337.129C175.582 336.423 175.741 335.803 176.06 335.27C176.384 334.736 176.799 334.328 177.305 334.046C177.815 333.759 178.337 333.615 178.87 333.615C179.244 333.615 179.567 333.677 179.841 333.8C180.114 333.918 180.321 334.08 180.463 334.285C180.604 334.49 180.675 334.718 180.675 334.969C180.675 335.256 180.572 335.479 180.367 335.639C180.166 335.798 179.893 335.894 179.547 335.926C179.387 335.47 179.223 335.135 179.055 334.921C178.886 334.702 178.683 334.593 178.446 334.593C178.091 334.593 177.817 334.755 177.626 335.078C177.434 335.402 177.339 335.878 177.339 336.507C177.339 336.899 177.407 337.288 177.544 337.676C177.685 338.059 177.892 338.378 178.166 338.633C178.444 338.883 178.779 339.009 179.171 339.009C179.499 339.009 179.775 338.972 179.998 338.899C180.221 338.822 180.456 338.708 180.702 338.558L180.921 339.111ZM186.251 332.891C186.256 332.872 186.269 332.831 186.292 332.768C186.319 332.704 186.358 332.645 186.408 332.59C186.458 332.531 186.52 332.501 186.593 332.501C186.62 332.501 186.641 332.503 186.654 332.508L187.933 332.822C188.038 332.85 188.138 332.863 188.234 332.863C188.489 332.863 188.71 332.786 188.897 332.631C189.088 332.471 189.232 332.28 189.327 332.057C189.428 331.833 189.478 331.628 189.478 331.441L188.917 331.4C188.908 331.419 188.883 331.457 188.842 331.517C188.805 331.571 188.755 331.624 188.692 331.674C188.628 331.719 188.559 331.733 188.486 331.715L187.078 331.38C186.978 331.357 186.891 331.346 186.818 331.346C186.577 331.346 186.37 331.425 186.196 331.585C186.023 331.744 185.893 331.934 185.807 332.152C185.725 332.367 185.684 332.556 185.684 332.72L185.691 332.802L186.251 332.891ZM186.217 340.164C186.509 340.164 186.78 340.109 187.03 340C187.286 339.895 187.5 339.763 187.673 339.604C187.851 339.444 187.974 339.285 188.042 339.125L188.124 339.146L188.145 339.241C188.208 339.524 188.318 339.745 188.473 339.904C188.632 340.064 188.887 340.144 189.238 340.144C189.494 340.144 189.699 340.123 189.854 340.082C190.013 340.041 190.17 339.973 190.325 339.877L190.455 339.002L190.189 338.954C189.97 338.913 189.815 338.858 189.724 338.79C189.637 338.717 189.585 338.624 189.567 338.51C189.548 338.396 189.539 338.204 189.539 337.936V335.782C189.539 335.053 189.387 334.522 189.081 334.189C188.776 333.852 188.336 333.684 187.762 333.684C187.374 333.684 186.962 333.766 186.525 333.93C186.087 334.089 185.72 334.294 185.424 334.545C185.132 334.796 184.986 335.044 184.986 335.29C184.986 335.614 185.103 335.828 185.335 335.933C185.568 336.037 185.871 336.09 186.244 336.09C186.276 335.689 186.31 335.39 186.347 335.194C186.383 334.998 186.443 334.855 186.525 334.764C186.611 334.668 186.736 334.62 186.901 334.62C187.233 334.62 187.488 334.759 187.666 335.037C187.844 335.315 187.933 335.661 187.933 336.076V336.589C187.249 336.612 186.673 336.726 186.203 336.931C185.734 337.136 185.381 337.4 185.144 337.724C184.911 338.047 184.795 338.4 184.795 338.783C184.795 339.225 184.925 339.567 185.185 339.809C185.449 340.046 185.793 340.164 186.217 340.164ZM187.933 338.558C187.814 338.667 187.675 338.763 187.516 338.845C187.361 338.922 187.208 338.961 187.058 338.961C186.857 338.961 186.698 338.895 186.579 338.763C186.465 338.631 186.408 338.48 186.408 338.312C186.408 338.047 186.525 337.815 186.757 337.614C186.994 337.414 187.386 337.268 187.933 337.177V338.558ZM197.583 340.185C198.176 340.185 198.707 340.046 199.176 339.768C199.646 339.485 200.012 339.089 200.277 338.578C200.541 338.068 200.673 337.48 200.673 336.814C200.673 336.149 200.559 335.582 200.331 335.112C200.104 334.638 199.769 334.278 199.327 334.032C198.889 333.786 198.36 333.663 197.741 333.663C197.217 333.663 196.711 333.795 196.223 334.06C195.735 334.324 195.337 334.707 195.027 335.208C194.717 335.705 194.562 336.286 194.562 336.951C194.562 337.557 194.667 338.104 194.876 338.592C195.086 339.075 195.416 339.462 195.868 339.754C196.323 340.041 196.895 340.185 197.583 340.185ZM197.467 334.736C197.996 334.736 198.367 335.01 198.581 335.557C198.8 336.104 198.91 336.769 198.91 337.553C198.91 338.063 198.818 338.464 198.636 338.756C198.454 339.043 198.178 339.187 197.809 339.187C197.289 339.187 196.909 338.945 196.667 338.462C196.43 337.974 196.312 337.32 196.312 336.5C196.312 335.958 196.403 335.529 196.585 335.215C196.772 334.896 197.066 334.736 197.467 334.736Z" fill="black"/>
</svg>
